<mxfile host="app.diagrams.net" modified="2023-12-09T06:43:13.921Z" agent="Mozilla/5.0 (X11; Linux x86_64) AppleWebKit/537.36 (KHTML, like Gecko) Chrome/119.0.0.0 Safari/537.36" etag="aPgG2CvKpKJDwxkWO1QZ" version="22.1.7" type="device">
  <diagram name="Page-1" id="nsbPSr6CMWQAEhChNJLb">
    <mxGraphModel dx="1050" dy="597" grid="1" gridSize="10" guides="1" tooltips="1" connect="1" arrows="1" fold="1" page="1" pageScale="1" pageWidth="850" pageHeight="1100" math="0" shadow="0">
      <root>
        <mxCell id="0" />
        <mxCell id="1" parent="0" />
        <mxCell id="XY8lFKUI_ViZL64cCf8j-4" value="" style="verticalLabelPosition=bottom;verticalAlign=top;html=1;shape=mxgraph.basic.rect;fillColor2=none;strokeWidth=1;size=20;indent=5;" parent="1" vertex="1">
          <mxGeometry x="170" y="210" width="480" height="610" as="geometry" />
        </mxCell>
        <mxCell id="XY8lFKUI_ViZL64cCf8j-13" style="rounded=0;orthogonalLoop=1;jettySize=auto;html=1;entryX=0;entryY=0.5;entryDx=0;entryDy=0;endArrow=none;endFill=0;exitX=1;exitY=0.3333333333333333;exitDx=0;exitDy=0;exitPerimeter=0;" parent="1" source="XY8lFKUI_ViZL64cCf8j-5" target="XY8lFKUI_ViZL64cCf8j-7" edge="1">
          <mxGeometry relative="1" as="geometry" />
        </mxCell>
        <mxCell id="XY8lFKUI_ViZL64cCf8j-16" style="rounded=0;orthogonalLoop=1;jettySize=auto;html=1;entryX=0;entryY=0.5;entryDx=0;entryDy=0;endArrow=none;endFill=0;exitX=1;exitY=0.3333333333333333;exitDx=0;exitDy=0;exitPerimeter=0;" parent="1" source="XY8lFKUI_ViZL64cCf8j-5" target="XY8lFKUI_ViZL64cCf8j-15" edge="1">
          <mxGeometry relative="1" as="geometry" />
        </mxCell>
        <mxCell id="XY8lFKUI_ViZL64cCf8j-5" value="User" style="shape=umlActor;verticalLabelPosition=bottom;verticalAlign=top;html=1;outlineConnect=0;" parent="1" vertex="1">
          <mxGeometry x="40" y="460" width="55" height="110" as="geometry" />
        </mxCell>
        <mxCell id="XY8lFKUI_ViZL64cCf8j-11" style="rounded=0;orthogonalLoop=1;jettySize=auto;html=1;entryX=0.041;entryY=0.367;entryDx=0;entryDy=0;entryPerimeter=0;dashed=1;" parent="1" source="XY8lFKUI_ViZL64cCf8j-7" target="XY8lFKUI_ViZL64cCf8j-9" edge="1">
          <mxGeometry relative="1" as="geometry" />
        </mxCell>
        <mxCell id="XY8lFKUI_ViZL64cCf8j-12" value="&lt;font style=&quot;font-size: 10px;&quot;&gt;&amp;lt;&amp;lt;include&amp;gt;&amp;gt;&lt;/font&gt;" style="edgeLabel;html=1;align=center;verticalAlign=middle;resizable=0;points=[];rotation=60;" parent="XY8lFKUI_ViZL64cCf8j-11" vertex="1" connectable="0">
          <mxGeometry x="-0.2993" y="-1" relative="1" as="geometry">
            <mxPoint x="26" y="2" as="offset" />
          </mxGeometry>
        </mxCell>
        <mxCell id="XY8lFKUI_ViZL64cCf8j-7" value="&lt;span style=&quot;font-size: 13px;&quot;&gt;&amp;nbsp;Start Detection of exe files&lt;/span&gt;" style="ellipse;whiteSpace=wrap;html=1;" parent="1" vertex="1">
          <mxGeometry x="300" y="260" width="210" height="70" as="geometry" />
        </mxCell>
        <mxCell id="XY8lFKUI_ViZL64cCf8j-8" value="&lt;span style=&quot;font-size: 13px;&quot;&gt;Show notifications&lt;/span&gt;" style="ellipse;whiteSpace=wrap;html=1;" parent="1" vertex="1">
          <mxGeometry x="460" y="490" width="180" height="60" as="geometry" />
        </mxCell>
        <mxCell id="XY8lFKUI_ViZL64cCf8j-17" style="edgeStyle=orthogonalEdgeStyle;rounded=0;orthogonalLoop=1;jettySize=auto;html=1;dashed=1;" parent="1" source="XY8lFKUI_ViZL64cCf8j-9" target="XY8lFKUI_ViZL64cCf8j-8" edge="1">
          <mxGeometry relative="1" as="geometry" />
        </mxCell>
        <mxCell id="XY8lFKUI_ViZL64cCf8j-9" value="&lt;font style=&quot;font-size: 13px;&quot;&gt;Classify Malwares&lt;/font&gt;" style="ellipse;whiteSpace=wrap;html=1;" parent="1" vertex="1">
          <mxGeometry x="460" y="370" width="180" height="60" as="geometry" />
        </mxCell>
        <mxCell id="XY8lFKUI_ViZL64cCf8j-15" value="&lt;span style=&quot;font-size: 13px;&quot;&gt;Application logs&lt;/span&gt;" style="ellipse;whiteSpace=wrap;html=1;" parent="1" vertex="1">
          <mxGeometry x="305" y="720" width="210" height="70" as="geometry" />
        </mxCell>
        <mxCell id="XY8lFKUI_ViZL64cCf8j-19" value="&lt;font style=&quot;font-size: 10px;&quot;&gt;&amp;lt;&amp;lt;include&amp;gt;&amp;gt;&lt;/font&gt;" style="edgeLabel;html=1;align=center;verticalAlign=middle;resizable=0;points=[];rotation=90;" parent="1" vertex="1" connectable="0">
          <mxGeometry x="529.9983113828633" y="569.9984513239554" as="geometry">
            <mxPoint x="-111" y="-35.00000000000001" as="offset" />
          </mxGeometry>
        </mxCell>
        <mxCell id="XY8lFKUI_ViZL64cCf8j-20" value="&lt;span style=&quot;font-size: 13px;&quot;&gt;Malware Classification System&lt;/span&gt;" style="text;html=1;strokeColor=none;fillColor=none;align=center;verticalAlign=middle;whiteSpace=wrap;rounded=0;" parent="1" vertex="1">
          <mxGeometry x="265" y="220" width="290" height="30" as="geometry" />
        </mxCell>
        <mxCell id="iG9Hf1kd8IpFvnbi_vNa-1" value="Show History" style="ellipse;whiteSpace=wrap;html=1;" vertex="1" parent="1">
          <mxGeometry x="315" y="550" width="190" height="80" as="geometry" />
        </mxCell>
        <mxCell id="iG9Hf1kd8IpFvnbi_vNa-2" value="" style="endArrow=none;html=1;rounded=0;entryX=0;entryY=0.5;entryDx=0;entryDy=0;exitX=1;exitY=0.3333333333333333;exitDx=0;exitDy=0;exitPerimeter=0;" edge="1" parent="1" source="XY8lFKUI_ViZL64cCf8j-5" target="iG9Hf1kd8IpFvnbi_vNa-1">
          <mxGeometry width="50" height="50" relative="1" as="geometry">
            <mxPoint x="100" y="500" as="sourcePoint" />
            <mxPoint x="200" y="520" as="targetPoint" />
          </mxGeometry>
        </mxCell>
      </root>
    </mxGraphModel>
  </diagram>
</mxfile>
